# xmcd CD database file
#
# Track frame offsets:
#	150
#	11910
#	34247
#	48157
#	71542
#	86342
#	97660
#	109830
#	122715
#	135695
#	183592
#
# Disc length: 2925 seconds
#
# Revision: 3
# Processed by: cddbd v1.5.2PL0 Copyright (c) Steve Scherf et al.
# Submitted via: CDex 1.51
#
DISCID=8c0b6b0b
DTITLE=Canned Heat - Far Out (Disc-1)
DYEAR=2002
DGENRE=Blues
TTITLE0=Wooly Bully
TTITLE1=On The Road Again (Re-Mix)
TTITLE2=Louise
TTITLE3=I'd Rather Be The Devil
TTITLE4=Dust My Broom (Alternate Version)
TTITLE5=Can't Hold On Much Longer
TTITLE6=Got My Mojo Working
TTITLE7=Same All Over (Re-Mix)
TTITLE8=Going Up The Country (Re-Mix)
TTITLE9=Sweet Sixteen
TTITLE10=Wish You Would (Alternate Version)
EXTD=YEAR: 2002
EXTT0=
EXTT1=
EXTT2=
EXTT3=
EXTT4=
EXTT5=
EXTT6=
EXTT7=
EXTT8=
EXTT9=
EXTT10=
PLAYORDER=
